<svg width="48" height="48" viewBox="0 0 48 48" fill="none" xmlns="http://www.w3.org/2000/svg">
<path d="M11.265 39C10.5356 39.0013 9.80918 38.9054 9.10502 38.715C6.99137 38.1122 5.19816 36.7051 4.11011 34.7954C3.02206 32.8857 2.72585 30.6256 3.28502 28.5L6.78002 15.24C7.0522 14.1669 7.53608 13.1589 8.20324 12.2754C8.87039 11.3919 9.70737 10.6506 10.665 10.095C11.5975 9.55492 12.6278 9.20524 13.6963 9.0662C14.7649 8.92716 15.8504 9.00153 16.89 9.285C17.9951 9.59188 19.0244 10.125 19.9127 10.8506C20.8009 11.5762 21.5288 12.4784 22.05 13.5H25.95C26.469 12.4767 27.1961 11.5732 28.0847 10.8473C28.9733 10.1215 30.0038 9.58934 31.11 9.285C32.1496 9.00153 33.2351 8.92716 34.3037 9.0662C35.3722 9.20524 36.4026 9.55492 37.335 10.095C38.288 10.6491 39.1219 11.3864 39.7887 12.2642C40.4555 13.1421 40.9419 14.1433 41.22 15.21L44.715 28.5C45.2825 30.6318 44.9887 32.9013 43.8969 34.8182C42.8051 36.7351 41.0031 38.1456 38.88 38.745C37.8404 39.0285 36.7549 39.1028 35.6863 38.9638C34.6178 38.8248 33.5875 38.4751 32.655 37.935C31.7005 37.3828 30.8653 36.6462 30.1983 35.768C29.5313 34.8899 29.0458 33.8877 28.77 32.82L28.5 31.5H19.5L19.155 32.79C18.8792 33.8577 18.3937 34.8599 17.7267 35.738C17.0597 36.6162 16.2246 37.3528 15.27 37.905C14.0512 38.608 12.6719 38.9851 11.265 39V39ZM14.745 12C13.8398 12.0031 12.9509 12.2408 12.165 12.69C10.9333 13.4127 10.038 14.5938 9.67502 15.975L6.18002 29.235C5.8143 30.6011 5.99909 32.0562 6.69469 33.2875C7.39029 34.5188 8.54117 35.4281 9.90002 35.82C10.5563 35.999 11.2415 36.0461 11.9161 35.9586C12.5907 35.871 13.2412 35.6506 13.83 35.31C14.4431 34.9561 14.9792 34.4831 15.4068 33.919C15.8344 33.3548 16.1449 32.7109 16.32 32.025L17.25 28.5H30.75L31.665 32.025C31.8432 32.7096 32.155 33.3522 32.5823 33.9159C33.0096 34.4797 33.5441 34.9534 34.155 35.31C34.7467 35.6503 35.3998 35.8704 36.0767 35.958C36.7537 36.0455 37.4412 35.9986 38.1 35.82C39.4605 35.4318 40.6128 34.5224 41.3066 33.2893C42.0003 32.0563 42.1794 30.5993 41.805 29.235L38.31 15.975C38.1359 15.2907 37.8274 14.6479 37.4025 14.0839C36.9776 13.5199 36.4448 13.0461 35.835 12.69C35.2433 12.3497 34.5903 12.1296 33.9133 12.042C33.2364 11.9545 32.5488 12.0014 31.89 12.18C31.0753 12.4122 30.3277 12.8355 29.7094 13.4147C29.0911 13.9938 28.62 14.7122 28.335 15.51L27.975 16.5H20.025L19.665 15.51C19.3775 14.7111 18.9037 13.9923 18.2828 13.4131C17.662 12.834 16.912 12.4113 16.095 12.18C15.6548 12.0613 15.2009 12.0008 14.745 12V12Z" fill="black" fill-opacity="0.6"/>
<path d="M15 24C14.4067 24 13.8266 23.8241 13.3333 23.4944C12.8399 23.1648 12.4554 22.6962 12.2284 22.1481C12.0013 21.5999 11.9419 20.9967 12.0576 20.4147C12.1734 19.8328 12.4591 19.2982 12.8787 18.8787C13.2982 18.4591 13.8328 18.1734 14.4147 18.0576C14.9967 17.9419 15.5999 18.0013 16.1481 18.2284C16.6962 18.4554 17.1648 18.8399 17.4944 19.3333C17.8241 19.8266 18 20.4067 18 21C18 21.7957 17.6839 22.5587 17.1213 23.1213C16.5587 23.6839 15.7957 24 15 24Z" fill="black" fill-opacity="0.6"/>
<path d="M33 19.5C33.8284 19.5 34.5 18.8284 34.5 18C34.5 17.1716 33.8284 16.5 33 16.5C32.1716 16.5 31.5 17.1716 31.5 18C31.5 18.8284 32.1716 19.5 33 19.5Z" fill="black" fill-opacity="0.6"/>
<path d="M33 25.5C33.8284 25.5 34.5 24.8284 34.5 24C34.5 23.1716 33.8284 22.5 33 22.5C32.1716 22.5 31.5 23.1716 31.5 24C31.5 24.8284 32.1716 25.5 33 25.5Z" fill="black" fill-opacity="0.6"/>
<path d="M30 22.5C30.8284 22.5 31.5 21.8284 31.5 21C31.5 20.1716 30.8284 19.5 30 19.5C29.1716 19.5 28.5 20.1716 28.5 21C28.5 21.8284 29.1716 22.5 30 22.5Z" fill="black" fill-opacity="0.6"/>
<path d="M36 22.5C36.8284 22.5 37.5 21.8284 37.5 21C37.5 20.1716 36.8284 19.5 36 19.5C35.1716 19.5 34.5 20.1716 34.5 21C34.5 21.8284 35.1716 22.5 36 22.5Z" fill="black" fill-opacity="0.6"/>
</svg>
